<?xml version="1.0" standalone="no"?><!DOCTYPE svg PUBLIC "-//W3C//DTD SVG 1.1//EN" "http://www.w3.org/Graphics/SVG/1.1/DTD/svg11.dtd"><svg width="100%" height="100%" viewBox="0 0 32 32" version="1.1" xmlns="http://www.w3.org/2000/svg" xmlns:xlink="http://www.w3.org/1999/xlink" xml:space="preserve" style="fill-rule:evenodd;clip-rule:evenodd;stroke-linejoin:round;stroke-miterlimit:1.41421;"><path d="M0,24.889l0,7.111l28.444,0l0,-7.111l-28.444,0ZM5.333,30.222l-3.555,0l0,-3.555l3.555,0l0,3.555Z" style="fill:#757576;fill-rule:nonzero;"/><path d="M19.556,17.778l0,-3.556l-19.556,0l0,7.111l28.444,0l0,-3.555l-8.888,0ZM5.333,19.556l-3.555,0l0,-3.556l3.555,0l0,3.556Z" style="fill:#757576;fill-rule:nonzero;"/><path d="M14.222,3.556l-14.222,0l0,7.111l14.222,0l0,-7.111ZM1.778,8.889l0,-3.556l3.555,0l0,3.556l-3.555,0Z" style="fill:#757576;fill-rule:nonzero;"/><path d="M32,5.333l-5.333,0l0,-5.333l-3.556,0l0,5.333l-5.333,0l0,3.556l5.333,0l0,5.333l3.556,0l0,-5.333l5.333,0l0,-3.556Z" style="fill:#757576;fill-rule:nonzero;"/></svg>